# xmcd
#
# Track frame offsets: 
#        150
#        13055
#        34635
#        47352
#        60087
#        70077
#        82590
#        92445
#        108660
#        118205
#        130515
#        140912
#        149402
#        164792
#        174850
#        183482
#        195075
#        204055
#        216492
#        232177
#        250602
#        254775
#        268450
#        287492
#        308485
#
# Disc length: 4318 seconds
#
# Revision: 0
# Processed by: cddbd v1.4PL0 Copyright (c) Steve Scherf et al.
# Submitted via: ExactAudioCopy v0.90b4
#
DISCID=6110dc19
DTITLE=Various Artist - The Big 'D' Jamboree Live,  Disc 1: Hillbilli
DTITLE=es
DYEAR=2000
DGENRE=Country
TTITLE0=The Texas Stompers - Double Eagle Stomp
TTITLE1=Cowboy Copas - Tragic Romance
TTITLE2=Ferlin Husky - Aladdin's Lamp
TTITLE3=Hank Locklin - A Good Woman's Love
TTITLE4=Hank Locklin - You Can't Never Tell
TTITLE5=The Kentucky Mountain Boys - Salty Dog
TTITLE6=Sherry Davis - Chime Bells
TTITLE7=Leon Payne - I Love You Because
TTITLE8=The Texas Stompers - River Road Two-Step
TTITLE9=Wanda Jackson - No Wedding Bells for Joe
TTITLE10=Orville Couch - King for a Day
TTITLE11=Orville Couch - Overnight
TTITLE12=Lawton Williams - Casino on the Hill
TTITLE13=Mitchell Torok - Love Me Like You Mean It
TTITLE14=Billy Jack Hale - Your Eyes
TTITLE15=Charline Arthur - Welcome to the Club
TTITLE16=Charline Arthur - What About Tomorrow?
TTITLE17=Johnny Cash - So Doggone Lonesome
TTITLE18=Johnny Cash - I Walk the Line
TTITLE19=Johnny Cash - Get Rhythm
TTITLE20=(Falstaff Beer Commercial)
TTITLE21=Billy Jack Saucier with the BDJ Band #1 - The Devil's Dream
TTITLE22=Jimmy Lee Fautheree - I'm Movin' On
TTITLE23=Jimmie Heap and the Melody Masters - Carbon Copy
TTITLE24=Ramona Reed - If I Could Only Learn to Yodel
EXTD=
EXTT0=
EXTT1=
EXTT2=
EXTT3=
EXTT4=
EXTT5=
EXTT6=
EXTT7=
EXTT8=
EXTT9=
EXTT10=
EXTT11=
EXTT12=
EXTT13=
EXTT14=
EXTT15=
EXTT16=
EXTT17=
EXTT18=
EXTT19=
EXTT20=
EXTT21=
EXTT22=
EXTT23=
EXTT24=
PLAYORDER=
